<svg xmlns="http://www.w3.org/2000/svg" width="1920" height="1279" viewBox="0 0 1920 1279">
  <g id="Groupe_657" data-name="Groupe 657" transform="translate(-109 -139)">
    <rect id="Rectangle_52" data-name="Rectangle 52" width="1920" height="1279" transform="translate(109 139)" fill="#ebebeb"/>
    <path id="Union_9" data-name="Union 9" d="M7.5,22V14.5H0v-7H7.5V0h7V7.5H22v7H14.5V22Z" transform="translate(623.5 359)" fill="#fff"/>
    <path id="Union_10" data-name="Union 10" d="M7.5,22V14.5H0v-7H7.5V0h7V7.5H22v7H14.5V22Z" transform="translate(420.982 709.645) rotate(-49)" fill="#fff"/>
    <path id="Union_11" data-name="Union 11" d="M7.5,22V14.5H0v-7H7.5V0h7V7.5H22v7H14.5V22Z" transform="matrix(0.545, 0.839, -0.839, 0.545, 287.734, 367.95)" fill="#fff"/>
    <g id="Polygone_8" data-name="Polygone 8" transform="matrix(-0.017, -1, 1, -0.017, 1853.185, 195.164)" fill="none">
      <path d="M10.5,0,21,19H0Z" stroke="none"/>
      <path d="M 10.5 8.269828796386719 L 6.780694961547852 15 L 14.21930503845215 15 L 10.5 8.269828796386719 M 10.5 0 L 21 19 L 0 19 L 10.5 0 Z" stroke="none" fill="#fff"/>
    </g>
    <g id="Polygone_9" data-name="Polygone 9" transform="translate(1224.032 431.182) rotate(80)" fill="none">
      <path d="M10.5,0,21,19H0Z" stroke="none"/>
      <path d="M 10.5 8.269828796386719 L 6.780694961547852 15 L 14.21930503845215 15 L 10.5 8.269828796386719 M 10.5 0 L 21 19 L 0 19 L 10.5 0 Z" stroke="none" fill="#fff"/>
    </g>
    <g id="Polygone_10" data-name="Polygone 10" transform="translate(381.032 995.684) rotate(80)" fill="none">
      <path d="M10.5,0,21,19H0Z" stroke="none"/>
      <path d="M 10.5 8.269828796386719 L 6.780694961547852 15 L 14.21930503845215 15 L 10.5 8.269828796386719 M 10.5 0 L 21 19 L 0 19 L 10.5 0 Z" stroke="none" fill="#fff"/>
    </g>
    <g id="Polygone_11" data-name="Polygone 11" transform="matrix(0.454, -0.891, 0.891, 0.454, 1656.269, 545.445)" fill="none">
      <path d="M10.5,0,21,19H0Z" stroke="none"/>
      <path d="M 10.5 8.269828796386719 L 6.780694961547852 15 L 14.21930503845215 15 L 10.5 8.269828796386719 M 10.5 0 L 21 19 L 0 19 L 10.5 0 Z" stroke="none" fill="#fff"/>
    </g>
    <g id="Ellipse_56" data-name="Ellipse 56" transform="translate(1493 690)" fill="none" stroke="#fff" stroke-width="4">
      <circle cx="11.5" cy="11.5" r="11.5" stroke="none"/>
      <circle cx="11.5" cy="11.5" r="9.5" fill="none"/>
    </g>
    <g id="Ellipse_57" data-name="Ellipse 57" transform="translate(1001 853)" fill="none" stroke="#fff" stroke-width="4">
      <circle cx="11.5" cy="11.5" r="11.5" stroke="none"/>
      <circle cx="11.5" cy="11.5" r="9.5" fill="none"/>
    </g>
    <g id="Ellipse_59" data-name="Ellipse 59" transform="translate(409 459)" fill="none" stroke="#fff" stroke-width="4">
      <circle cx="11.5" cy="11.5" r="11.5" stroke="none"/>
      <circle cx="11.5" cy="11.5" r="9.5" fill="none"/>
    </g>
    <g id="Ellipse_60" data-name="Ellipse 60" transform="translate(188 830)" fill="none" stroke="#fff" stroke-width="4">
      <circle cx="11.5" cy="11.5" r="11.5" stroke="none"/>
      <circle cx="11.5" cy="11.5" r="9.5" fill="none"/>
    </g>
    <g id="Ellipse_61" data-name="Ellipse 61" transform="translate(1917 358)" fill="none" stroke="#fff" stroke-width="4">
      <circle cx="11.5" cy="11.5" r="11.5" stroke="none"/>
      <circle cx="11.5" cy="11.5" r="9.5" fill="none"/>
    </g>
    <path id="Union_7" data-name="Union 7" d="M7.5,22V14.5H0v-7H7.5V0h7V7.5H22v7H14.5V22Z" transform="translate(1928.5 1018.999)" fill="#fff"/>
    <path id="Union_8" data-name="Union 8" d="M7.5,22V14.5H0v-7H7.5V0h7V7.5H22v7H14.5V22Z" transform="translate(1299.5 1113.249)" fill="#fff"/>
    <path id="Union_12" data-name="Union 12" d="M7.5,22V14.5H0v-7H7.5V0h7V7.5H22v7H14.5V22Z" transform="matrix(0.545, 0.839, -0.839, 0.545, 287.734, 1149.689)" fill="#fff"/>
    <g id="Polygone_7" data-name="Polygone 7" transform="translate(1656 1265)" fill="none">
      <path d="M10.5,0,21,19H0Z" stroke="none"/>
      <path d="M 10.5 8.269828796386719 L 6.780694961547852 15 L 14.21930503845215 15 L 10.5 8.269828796386719 M 10.5 0 L 21 19 L 0 19 L 10.5 0 Z" stroke="none" fill="#fff"/>
    </g>
    <g id="Ellipse_58" data-name="Ellipse 58" transform="translate(710 1185)" fill="none" stroke="#fff" stroke-width="4">
      <circle cx="11.5" cy="11.5" r="11.5" stroke="none"/>
      <circle cx="11.5" cy="11.5" r="9.5" fill="none"/>
    </g>
  </g>
</svg>
