<svg xmlns="http://www.w3.org/2000/svg" xmlns:xlink="http://www.w3.org/1999/xlink" width="36.988" height="36.988" viewBox="0 0 36.988 36.988">
  <defs>
    <filter id="Tracé_37" x="0" y="0" width="36.988" height="36.988" filterUnits="userSpaceOnUse">
      <feOffset dy="3" input="SourceAlpha"/>
      <feGaussianBlur stdDeviation="3" result="blur"/>
      <feFlood flood-opacity="0.153"/>
      <feComposite operator="in" in2="blur"/>
      <feComposite in="SourceGraphic"/>
    </filter>
    <clipPath id="clip-path">
      <rect id="Rectangle_38" data-name="Rectangle 38" width="16" height="10" transform="translate(0 82.652)" fill="#fff"/>
    </clipPath>
  </defs>
  <g id="Groupe_750" data-name="Groupe 750" transform="translate(-700.757 -662.997)">
    <g transform="matrix(1, 0, 0, 1, 700.76, 663)" filter="url(#Tracé_37)">
      <path id="Tracé_37-2" data-name="Tracé 37" d="M9.494,0a9.494,9.494,0,1,0,9.494,9.494A9.5,9.5,0,0,0,9.494,0Zm0,0" transform="translate(9 6)" fill="#ff7600"/>
    </g>
    <g id="Groupe_de_masques_369" data-name="Groupe de masques 369" transform="translate(711 590.348)" clip-path="url(#clip-path)">
      <path id="eye" d="M7.981,358.8A8.939,8.939,0,0,0,0,363.788a8.878,8.878,0,0,0,15.961,0A8.939,8.939,0,0,0,7.981,358.8Zm3.935,2.645a7.589,7.589,0,0,1,2.329,2.343,7.59,7.59,0,0,1-2.329,2.343,7.313,7.313,0,0,1-7.87,0,7.59,7.59,0,0,1-2.329-2.343,7.589,7.589,0,0,1,2.329-2.343c.061-.039.123-.077.185-.114a3.99,3.99,0,1,0,7.5,0q.093.056.185.114h0Zm-3.935.846a1.5,1.5,0,1,1-1.5-1.5A1.5,1.5,0,0,1,7.981,362.292Z" transform="translate(0.027 -276.109)" fill="#fff"/>
    </g>
  </g>
</svg>
