<svg xmlns="http://www.w3.org/2000/svg" width="27" height="27" viewBox="0 0 27 27">
  <path id="Exclusion_2" data-name="Exclusion 2" d="M13.5,27A13.5,13.5,0,0,1,8.245,1.061a13.5,13.5,0,0,1,10.51,24.878A13.416,13.416,0,0,1,13.5,27ZM11.235,12.308a1.434,1.434,0,0,1,.965.241,1.162,1.162,0,0,1,.252.853,3.773,3.773,0,0,1-.082.747c-.053.268-.119.552-.2.869l-.9,3.191c-.08.335-.139.638-.176.9a5.782,5.782,0,0,0-.054.781,2.078,2.078,0,0,0,.727,1.623,3,3,0,0,0,2.037.639,4.575,4.575,0,0,0,1.5-.224c.437-.152,1.018-.37,1.727-.65l.24-.983a4.082,4.082,0,0,1-.6.2,2.848,2.848,0,0,1-.743.115,1.6,1.6,0,0,1-.982-.229,1.073,1.073,0,0,1-.283-.863,4.513,4.513,0,0,1,.088-.743,8.543,8.543,0,0,1,.2-.876l.9-3.178a4.885,4.885,0,0,0,.181-.962c.032-.334.049-.587.049-.732a2.1,2.1,0,0,0-.7-1.634,2.931,2.931,0,0,0-2.007-.629,5.092,5.092,0,0,0-1.533.257c-.532.168-1.1.376-1.7.617l-.241.984c.189-.07.4-.14.631-.208A2.547,2.547,0,0,1,11.235,12.308Zm4.117-7.364a2.162,2.162,0,0,0-1.52.59,1.9,1.9,0,0,0,0,2.836,2.173,2.173,0,0,0,1.52.585,2.146,2.146,0,0,0,1.512-.585,1.914,1.914,0,0,0,0-2.836A2.139,2.139,0,0,0,15.352,4.943Z" fill="#ff7600"/>
</svg>
